<svg width="63" height="63" viewBox="0 0 63 63" fill="none" xmlns="http://www.w3.org/2000/svg">
<rect x="1" y="1" width="61" height="61" rx="9" fill="url(#paint0_linear_17_125)" stroke="white" stroke-width="2"/>
<g filter="url(#filter0_i_17_125)">
<path d="M44.25 40.5714V44H23.25V40.5714C23.25 40.5714 23.25 33.7143 33.75 33.7143C44.25 33.7143 44.25 40.5714 44.25 40.5714ZM39 25.1429C39 24.1257 38.6921 23.1314 38.1152 22.2856C37.5383 21.4399 36.7184 20.7807 35.7591 20.3915C34.7998 20.0022 33.7442 19.9004 32.7258 20.0988C31.7074 20.2973 30.7719 20.7871 30.0377 21.5063C29.3035 22.2256 28.8034 23.1419 28.6009 24.1395C28.3983 25.1372 28.5023 26.1712 28.8996 27.1109C29.297 28.0507 29.9699 28.8539 30.8333 29.419C31.6966 29.9841 32.7116 30.2857 33.75 30.2857C35.1424 30.2857 36.4777 29.7439 37.4623 28.7794C38.4469 27.8149 39 26.5068 39 25.1429ZM44.6 33.8171C45.5566 34.6817 46.3278 35.7242 46.8687 36.8839C47.4095 38.0435 47.7091 39.2971 47.75 40.5714V44H53V40.5714C53 40.5714 53 34.6571 44.6 33.8171ZM42.5 20C41.9713 20.0003 41.4458 20.0813 40.9425 20.24C41.9663 21.6782 42.5153 23.3895 42.5153 25.1429C42.5153 26.8963 41.9663 28.6075 40.9425 30.0457C41.4458 30.2044 41.9713 30.2854 42.5 30.2857C43.8924 30.2857 45.2277 29.7439 46.2123 28.7794C47.1969 27.8149 47.75 26.5068 47.75 25.1429C47.75 23.7789 47.1969 22.4708 46.2123 21.5063C45.2277 20.5418 43.8924 20 42.5 20ZM25 28.5714H19.75V23.4286H16.25V28.5714H11V32H16.25V37.1429H19.75V32H25V28.5714Z" fill="#E7E7E7"/>
</g>
<defs>
<filter id="filter0_i_17_125" x="11" y="20" width="42" height="24" filterUnits="userSpaceOnUse" color-interpolation-filters="sRGB">
<feFlood flood-opacity="0" result="BackgroundImageFix"/>
<feBlend mode="normal" in="SourceGraphic" in2="BackgroundImageFix" result="shape"/>
<feColorMatrix in="SourceAlpha" type="matrix" values="0 0 0 0 0 0 0 0 0 0 0 0 0 0 0 0 0 0 127 0" result="hardAlpha"/>
<feOffset/>
<feGaussianBlur stdDeviation="1.5"/>
<feComposite in2="hardAlpha" operator="arithmetic" k2="-1" k3="1"/>
<feColorMatrix type="matrix" values="0 0 0 0 1 0 0 0 0 1 0 0 0 0 1 0 0 0 1 0"/>
<feBlend mode="normal" in2="shape" result="effect1_innerShadow_17_125"/>
</filter>
<linearGradient id="paint0_linear_17_125" x1="31.5" y1="0" x2="31.5" y2="63" gradientUnits="userSpaceOnUse">
<stop stop-color="#24A2FD"/>
<stop offset="1" stop-color="#246BFD"/>
</linearGradient>
</defs>
</svg>
